<?xml version="1.0" encoding="UTF-8" standalone="no"?>
<!-- Created with Inkscape (http://www.inkscape.org/) -->

<svg
   width="382.37924mm"
   height="382.26193mm"
   viewBox="0 0 382.37924 382.26193"
   version="1.1"
   id="svg5"
   inkscape:version="1.1.2 (0a00cf5339, 2022-02-04)"
   sodipodi:docname="corner-2.svg"
   xmlns:inkscape="http://www.inkscape.org/namespaces/inkscape"
   xmlns:sodipodi="http://sodipodi.sourceforge.net/DTD/sodipodi-0.dtd"
   xmlns="http://www.w3.org/2000/svg"
   xmlns:svg="http://www.w3.org/2000/svg">
  <sodipodi:namedview
     id="namedview7"
     pagecolor="#ffffff"
     bordercolor="#666666"
     borderopacity="1.0"
     inkscape:pageshadow="2"
     inkscape:pageopacity="0.0"
     inkscape:pagecheckerboard="0"
     inkscape:document-units="mm"
     showgrid="false"
     inkscape:snap-bbox="false"
     inkscape:snap-page="true"
     inkscape:snap-object-midpoints="true"
     inkscape:zoom="0.17164972"
     inkscape:cx="131.0809"
     inkscape:cy="1759.397"
     inkscape:window-width="1920"
     inkscape:window-height="1062"
     inkscape:window-x="0"
     inkscape:window-y="18"
     inkscape:window-maximized="1"
     inkscape:current-layer="layer1"
     fit-margin-top="0"
     fit-margin-left="0"
     fit-margin-right="0"
     fit-margin-bottom="0"
     lock-margins="true" />
  <defs
     id="defs2" />
  <g
     inkscape:label="Calque 1"
     inkscape:groupmode="layer"
     id="layer1"
     transform="translate(2600.5416,-397.43726)">
    <path
       id="rect5867-7-7"
       style="fill:#cdd1e4;fill-opacity:1;fill-rule:evenodd;stroke:#cdd1e4;stroke-width:20.00126009;stroke-linecap:square;stroke-linejoin:miter;stroke-miterlimit:4;stroke-dasharray:none;stroke-opacity:1;paint-order:markers stroke fill"
       d="m 1271.8496,-101.93555 v 50.986331 50.98437525 0.42382813 h -50.1699 -50.5762 -50.5781 -50.5801 -50.5781 -50.57618 -50.57813 -50.57617 V 0 H 816.59766 765.5625 714.52344 663.48438 612.45117 561.41211 v 51.021484 51.015626 51.02148 H 510.37695 459.33789 V 102.03711 51.021484 0 H 408.30078 357.26172 306.22656 255.18945 204.14844 V 51.021484 102.03711 H 153.11328 V 51.021484 0 H 102.07617 51.041016 0 v 51.021484 51.015626 51.02148 h 51.041016 51.035154 v 51.02149 H 51.041016 0 v 51.01758 51.02148 51.01758 51.02148 51.01758 h 51.041016 51.035154 51.03711 v 51.02149 H 102.07617 51.041016 0 v 51.01953 51.01758 51.02148 51.01953 51.01953 51.01758 51.02148 50.5586 50.56054 50.56058 50.5605 50.5586 50.5625 50.5586 50.5586 0.037 H -0.40820312 -51.392578 -102.37891 v 50.9844 H -51.392578 -0.40820312 50.578125 v -50.9844 -0.037 -50.5586 -50.5586 -50.5625 -50.5586 -50.5605 -50.56058 -50.56054 -50.5586 h 0.46875 V 816.3125 765.29492 714.27539 663.25586 612.23438 561.2168 h 51.035155 51.03711 51.03711 v -51.01953 -51.02149 h 51.04102 v 51.02149 51.01953 51.01758 51.02148 h 51.03515 51.03711 51.03711 51.03711 51.03711 51.03711 V 612.23438 561.2168 h 51.03906 51.03516 V 510.19727 459.17578 408.1582 357.13672 306.11914 255.09766 h -51.03516 -51.03906 -51.03711 -51.03711 v -51.01758 h 51.03711 51.03711 51.03906 V 153.05859 102.03711 51.021484 h 51.02735 51.03906 51.03906 51.03516 51.03906 50.57617 50.57813 50.57618 50.5781 50.5801 50.5781 50.5762 50.1699 0.4102 50.5742 V 0.45898438 0.03515625 -50.949219 -101.93555 Z M 51.041016,51.015625 H 102.07617 V 102.0332 H 51.041016 Z m 204.148434,0 h 51.03711 51.03516 51.03906 v 51.017575 51.02149 h -51.03906 -51.03516 v 51.01953 51.01953 51.01953 h 51.03516 51.03906 v 51.01758 51.02148 h -51.03906 -51.03516 v -51.02148 -51.01758 h -51.03711 -51.04101 -51.03516 v 51.01758 51.02148 H 102.07617 51.041016 v -51.02148 -51.01758 -51.01953 h 51.035154 51.03711 v -51.01953 -51.01953 h 51.03516 51.04101 V 102.0332 Z M 357.26172,204.07422 h 51.03906 v 51.01953 h -51.03906 z m 102.07617,102.03906 h 51.03906 51.03516 51.03906 v 51.01953 51.01953 51.01954 51.02148 h -51.03906 v -51.02148 -51.01954 h -51.03516 -51.03906 v -51.01953 z m -255.18945,51.01758 h 51.04101 v 51.02148 h -51.04101 z m 102.07812,102.04102 h 51.03516 51.03906 v 51.02148 51.01953 h 51.03711 51.03906 v 51.01953 h -51.03906 -51.03711 -51.03906 -51.03516 v -51.01953 -51.01953 z m 153.11133,0 h 51.03906 v 51.02148 h -51.03906 z"
       transform="matrix(0.26458333,0,0,0.26458333,-2570.808,427.05354)" />
  </g>
</svg>
