<?xml version="1.0" encoding="UTF-8" standalone="no"?>
<!-- Created with Inkscape (http://www.inkscape.org/) -->

<svg
   width="350.00003mm"
   height="350mm"
   viewBox="0 0 350.00003 350"
   version="1.1"
   id="svg5"
   inkscape:version="1.1.2 (0a00cf5339, 2022-02-04)"
   sodipodi:docname="corner.svg"
   xmlns:inkscape="http://www.inkscape.org/namespaces/inkscape"
   xmlns:sodipodi="http://sodipodi.sourceforge.net/DTD/sodipodi-0.dtd"
   xmlns="http://www.w3.org/2000/svg"
   xmlns:svg="http://www.w3.org/2000/svg">
  <sodipodi:namedview
     id="namedview7"
     pagecolor="#ffffff"
     bordercolor="#666666"
     borderopacity="1.0"
     inkscape:pageshadow="2"
     inkscape:pageopacity="0.0"
     inkscape:pagecheckerboard="0"
     inkscape:document-units="mm"
     showgrid="false"
     inkscape:snap-bbox="false"
     inkscape:snap-page="true"
     inkscape:snap-object-midpoints="true"
     inkscape:zoom="0.032504762"
     inkscape:cx="2291.9718"
     inkscape:cy="-4737.7673"
     inkscape:window-width="1920"
     inkscape:window-height="1062"
     inkscape:window-x="0"
     inkscape:window-y="18"
     inkscape:window-maximized="1"
     inkscape:current-layer="layer1"
     fit-margin-top="0"
     fit-margin-left="0"
     fit-margin-right="0"
     fit-margin-bottom="0"
     lock-margins="true" />
  <defs
     id="defs2" />
  <g
     inkscape:label="Calque 1"
     inkscape:groupmode="layer"
     id="layer1"
     transform="translate(2570.808,-427.05354)">
    <path
       id="rect5867-7"
       style="fill:#cdd1e4;fill-opacity:1;fill-rule:evenodd;stroke:#cdd1e4;stroke-width:4.00734;stroke-linecap:square;stroke-linejoin:miter;stroke-miterlimit:4;stroke-dasharray:none;stroke-opacity:1;paint-order:markers stroke fill"
       d="m -2555.5753,775.04987 v -0.12018 -13.22509 -13.22352 -13.22402 -13.22458 -13.22402 -13.22404 -13.22457 -13.22404 -13.22404 h 0.1224 V 642.56702 629.2233 615.87855 602.53432 589.18957 575.84585 h 13.3488 13.3489 13.3488 V 562.5011 549.15635 h 13.3499 v 13.34475 13.34475 13.34372 13.34475 h 13.3483 13.3493 13.3489 13.3488 13.3493 13.3489 v -13.34475 -13.34372 h 13.3493 13.3483 V 562.5011 549.15635 535.81263 522.46787 509.12364 495.77889 h -13.3483 -13.3493 -13.3489 -13.3493 v -13.34371 h 13.3493 13.3489 13.3493 v -13.34475 -13.34476 -13.34372 h 13.3463 13.3498 13.3494 13.3483 13.3493 13.2285 13.229 13.2285 13.229 13.229 13.229 13.2285 13.2296 13.2279 V 429.1774 h -13.2279 -13.2296 -13.2285 -13.229 -13.229 -13.229 -13.2285 -13.229 -13.2285 v -0.12019 h -13.3493 -13.3483 -13.3494 -13.3498 -13.3478 -13.3494 v 13.34474 13.34372 13.34476 h -13.3488 -13.3494 v -13.34476 -13.34372 -13.34474 h -13.3488 -13.3493 -13.3489 -13.3488 -13.3499 v 13.34474 13.34372 h -13.3483 v -13.34372 -13.34474 h -13.3493 -13.3483 -13.3499 v 13.34474 13.34372 13.34476 h 13.3499 13.3483 v 13.34475 h -13.3483 -13.3499 v 13.34371 13.34475 13.34423 13.34476 13.34372 h 13.3499 13.3483 13.3493 v 13.34475 h -13.3493 -13.3483 -13.3499 v 13.34475 13.34372 13.34475 13.34423 13.34475 13.34372 13.34475 13.22404 13.22404 13.22457 13.22404 13.22402 13.22458 13.22402 13.22352 13.22509 0.12018 z m 120.2619,-185.86082 h -13.3494 -13.3488 -13.3493 -13.3489 v -13.34424 -13.34475 -13.34475 h 13.3489 13.3493 v 13.34475 13.34475 h 13.3488 13.3494 z m 26.6982,-26.68899 h -13.3494 v -13.34475 -13.34423 h -13.3488 -13.3494 v -13.34424 -13.34423 h 13.3494 13.3488 13.3494 v 13.34423 13.34424 13.34423 z m -26.6982,0 h -13.3494 v -13.34475 h 13.3494 z m -26.6982,-26.68898 h -13.3493 -13.3489 v -13.34476 -13.34371 h -13.3488 -13.3499 -13.3483 v 13.34371 13.34476 h -13.3493 -13.3483 v -13.34476 -13.34371 -13.34476 h 13.3483 13.3493 v -13.34423 -13.34423 h 13.3483 13.3499 V 455.74463 442.4004 h 13.3488 13.3489 13.3493 v 13.34423 13.34476 h -13.3493 -13.3489 v 13.34423 13.34423 13.34476 h 13.3489 13.3493 v 13.34371 z m -40.047,0 h -13.3499 v -13.34476 h 13.3499 z m 40.047,-40.03323 h -13.3493 v -13.34423 h 13.3493 z m -80.0945,-40.03322 h -13.3483 V 442.4004 h 13.3483 z" />
  </g>
</svg>
